<svg width="233" height="473" viewBox="0 0 233 473" fill="none" xmlns="http://www.w3.org/2000/svg">
<path d="M48.2202 101.16C53.2202 94.6199 65.1301 80.62 72.3801 77H73.8601L78.3901 75.49C79.9001 73.98 83.2301 70.96 84.3901 70.96C85.9001 70.96 104.03 92.0999 107.05 96.6299C110.07 101.16 108.56 102.63 108.56 105.69C108.56 108.11 106.56 107.69 105.56 107.2L99.56 149.49L104.09 164.59L169.02 137.4L176.57 152.51C158.96 161.57 121.57 180.9 113.15 185.73C104.73 190.56 97.54 191.73 95.03 191.73L93.51 203.81H28.58C18.91 203.81 13.4802 200.81 11.9702 199.28C11.0159 173.409 17.2905 147.783 30.09 125.28C34.93 116.87 44.1902 105.69 48.2202 101.16Z" fill="white"/>
<path d="M92.4102 117.77C93.6102 126.16 103.72 165.37 103.72 165.37L193.03 127.37L202.62 139.37C202.62 139.37 143.92 171.71 107.98 188.48C72.0402 205.25 66.0501 162.14 58.8701 114.24" stroke="black" stroke-width="1.56" stroke-miterlimit="10"/>
<path d="M109.18 98.63L108.18 107.4C108.15 107.6 108.071 107.789 107.95 107.95C107.83 108.113 107.667 108.241 107.48 108.32C107.294 108.411 107.085 108.443 106.88 108.41C106.678 108.386 106.485 108.311 106.32 108.19L105.79 107.79L106.04 104.44C106.256 101.601 105.696 98.7577 104.421 96.2126C103.146 93.6675 101.203 91.5167 98.8 89.9901L79.2002 77.53C78.4871 77.0918 77.7163 76.7552 76.9102 76.53L81.3501 71.63C81.6772 71.2739 82.0759 70.9911 82.52 70.8C82.9683 70.6093 83.4534 70.5205 83.9402 70.54C84.4226 70.5519 84.8966 70.6678 85.3301 70.88C85.7653 71.0935 86.148 71.4009 86.4502 71.78L109.18 98.63Z" stroke="black" stroke-width="1.56" stroke-miterlimit="10"/>
<path d="M76.9502 76.46C77.7563 76.6852 78.5269 77.0218 79.24 77.46L98.8601 89.9399C101.263 91.4666 103.206 93.6174 104.481 96.1625C105.756 98.7076 106.316 101.551 106.1 104.39L105.85 107.74" stroke="black" stroke-width="1.56" stroke-miterlimit="10"/>
<path d="M105.86 107.77L100.3 151.03" stroke="black" stroke-width="1.56" stroke-miterlimit="10"/>
<path d="M12.2399 200.99C6.98994 139.86 50.4201 94.8201 68.9101 78.3101C69.9811 77.335 71.2815 76.647 72.6901 76.3101C74.0961 75.9813 75.563 76.0192 76.9501 76.42" stroke="black" stroke-width="1.56" stroke-miterlimit="10"/>
<path d="M129.86 40.49C130.1 31.77 120.79 17.49 101.54 22.75C82.2901 28.01 74.6003 44.4 78.1903 53.06C81.7803 61.72 89.7902 66.13 97.8402 61.46C97.8402 61.46 93.3403 52.8199 99.7203 48.5399C106.1 44.2599 106.99 53.3499 105.95 56.7799C104.91 60.2099 111.6 54.78 114.54 49.44C116.148 49.4586 117.743 49.1539 119.231 48.5441C120.718 47.9342 122.068 47.0316 123.2 45.8899C125.149 43.779 127.392 41.9604 129.86 40.49Z" fill="black"/>
<path d="M99.7301 22.0699C100.604 21.5409 101.294 20.757 101.709 19.8238C102.124 18.8906 102.243 17.8528 102.05 16.8499C100.49 8.72992 91.6001 -3.25008 77.4201 2.22992C60.8201 8.62992 68.6401 23.6599 76.2201 23.5299C80.96 23.5968 85.4927 25.4837 88.88 28.7999L99.7301 22.0699Z" fill="black"/>
<path d="M101.58 70.5C101.58 70.5 116.2 83.8999 119.27 82.1299C122.34 80.3599 126.42 67.71 126.42 67.71C128.092 67.9421 129.795 67.8264 131.42 67.37C132.98 66.57 128.67 60.1999 128.96 55.2799C129.25 50.3599 130.67 43.8899 129.12 40.8799" stroke="black" stroke-width="1.56" stroke-miterlimit="10"/>
<path d="M85.2202 71.0599C88.4371 68.0625 91.3327 64.7378 93.8601 61.1399" stroke="black" stroke-width="1.56" stroke-miterlimit="10"/>
<path d="M110.26 77.72C110.26 77.72 101.86 87.53 101.93 91.33" stroke="black" stroke-width="1.56" stroke-miterlimit="10"/>
<path d="M129.16 40.8799C128.33 44.6299 121.76 52.36 115.69 51.7" stroke="black" stroke-width="1.56" stroke-miterlimit="10"/>
<path d="M90.3398 30.5099C88.4098 28.6399 82.7098 24.2799 77.7698 25.2899C72.8298 26.2999 71.6699 23.98 71.6699 23.98" stroke="black" stroke-width="1.56" stroke-miterlimit="10"/>
<path d="M168.99 137.59L177.1 153.16" stroke="black" stroke-width="1.56" stroke-miterlimit="10"/>
<path d="M194.23 128.56C194.23 128.56 196.84 122.24 198.42 120.87C199.42 119.98 202.32 120.99 204.24 121.87C204.417 121.942 204.57 122.064 204.68 122.22C204.791 122.379 204.857 122.566 204.87 122.76C204.889 122.956 204.853 123.153 204.767 123.33C204.68 123.506 204.546 123.655 204.38 123.76L201.38 125.69C201.38 125.69 201.3 128.81 203.56 128.93C205.12 128.93 214.88 124.14 220.16 121.41C220.28 121.37 220.41 121.37 220.53 121.41C220.653 121.45 220.762 121.526 220.84 121.63C220.908 121.737 220.939 121.864 220.93 121.99C220.921 122.12 220.868 122.244 220.78 122.34C215.55 127.23 209.78 134.34 201.41 138.23" stroke="black" stroke-width="1.56" stroke-miterlimit="10"/>
<path d="M201.39 125.62L230.89 111.68C231.03 111.622 231.179 111.588 231.33 111.58C231.478 111.581 231.624 111.611 231.76 111.67C231.895 111.728 232.018 111.813 232.12 111.92C232.221 112.029 232.296 112.159 232.34 112.3L232.81 113.72C232.92 114.01 232.92 114.33 232.81 114.62C232.693 114.91 232.472 115.145 232.19 115.28L203.19 129.17L201.39 125.62Z" fill="black"/>
<path d="M58.28 115.09C58.28 115.09 53.1601 199.92 93.6101 199.62L94.3901 192.13C94.3901 192.13 80.8701 193.13 73.6301 178.66C66.3901 164.19 58.28 115.09 58.28 115.09Z" fill="black"/>
<path d="M92.9399 117.7L101.27 142.91L100.27 150.56L94.9897 130.04L92.9399 117.7Z" fill="black"/>
<path d="M88.6101 67.71L101.91 89.4299L85.4502 70.85L88.6101 67.71Z" fill="black"/>
<path d="M101.76 201.31L192.16 463.31H175.48L38.3601 212.64L101.76 201.31Z" fill="black"/>
<path d="M179.32 471.76L176.01 463.33H192.76C199.46 463.33 203.18 466.01 208.33 469.19C208.536 469.294 208.699 469.466 208.793 469.677C208.886 469.888 208.904 470.125 208.843 470.348C208.782 470.57 208.645 470.764 208.457 470.898C208.269 471.031 208.04 471.096 207.81 471.08L179.32 471.76Z" stroke="black" stroke-miterlimit="10"/>
<path d="M92.2397 402.08L95.4199 393.89L107.52 394.04C114.22 394.04 117.94 396.72 123.09 399.91C123.297 400.014 123.462 400.187 123.555 400.4C123.649 400.612 123.666 400.85 123.603 401.073C123.54 401.297 123.402 401.491 123.212 401.624C123.022 401.756 122.791 401.819 122.56 401.8L92.2397 402.08Z" stroke="black" stroke-miterlimit="10"/>
<path d="M119.42 248.46C98.3502 253.91 68.1101 256.24 43.6501 248.86C23.4101 242.74 15.49 223 11.74 199.86C20.24 205.78 45.1401 201.53 83.6401 200.7L169.23 201.7C171.969 201.734 174.659 202.431 177.069 203.734C179.478 205.036 181.536 206.904 183.064 209.177C184.593 211.45 185.547 214.06 185.844 216.783C186.141 219.506 185.772 222.261 184.77 224.81L110.86 394.15L95.3801 393.89L139.99 240.39C135.49 243.3 128.25 246.15 119.38 248.46C98.3101 253.91 68.0701 256.24 43.6101 248.86" fill="black"/>
<path d="M123.23 252.87H19.98C16.5448 252.87 13.76 255.655 13.76 259.09V261.32C13.76 264.755 16.5448 267.54 19.98 267.54H123.23C126.665 267.54 129.45 264.755 129.45 261.32V259.09C129.45 255.655 126.665 252.87 123.23 252.87Z" fill="white" stroke="black" stroke-width="1.29" stroke-miterlimit="10"/>
<path d="M32.2399 267.76L0.679932 471.63" stroke="black" stroke-width="1.29" stroke-miterlimit="10"/>
<path d="M114.35 267.76L145.91 471.63" stroke="black" stroke-width="1.29" stroke-miterlimit="10"/>
<path d="M73.3 268.09V471.63" stroke="black" stroke-width="1.29" stroke-miterlimit="10"/>
<path d="M12.8301 401.54L133.47 402.31" stroke="black" stroke-width="1.29" stroke-miterlimit="10"/>
<path d="M94.38 192.14L93.5 201.17" stroke="black" stroke-width="1.56" stroke-miterlimit="10"/>
</svg>
